<?xml version="1.0" encoding="UTF-8"?><svg id="a" xmlns="http://www.w3.org/2000/svg" viewBox="0 0 312.73 125.51"><defs><style>.c{fill:#00e5fd;}.d{fill:#00acef;}.e{fill:#000726;}.f{fill:#fff;}.g{fill:#ff9b00;}.h{fill:#e85132;}.i{fill:#ff623e;}.j{fill:#00afec;}.k{fill:#b600df;}.l{fill:#aebdc2;}.m{fill:#6f00a3;}.n{fill:#57e1ff;}.o,.p{fill:#313337;}.p{stroke:#313337;stroke-linejoin:round;stroke-width:4.69px;}</style></defs><g><g><path class="o" d="M165.59,8.48h-4.89v23.91h-3.91V8.48h-4.89v-3.49h13.7v3.49Z"/><path class="o" d="M171.4,19.67v9.79h6.85v2.94h-10.76V4.99h10.76v2.94h-6.85v8.81h4.89v2.94h-4.89Z"/><path class="o" d="M184.56,19.67v9.79h6.85v2.94h-10.76V4.99h10.76v2.94h-6.85v8.81h4.89v2.94h-4.89Z"/><path class="o" d="M197.73,14.16v18.23h-3.91V4.99h2.94l6.85,16.94V4.99h3.91v27.4h-2.78l-7-18.23Z"/></g><g><path class="o" d="M155.8,64.45h-3.91l5.87-27.4h3.91l5.87,27.4h-3.91l-1.47-6.85h-4.89l-1.47,6.85Zm3.91-21.53l-1.96,11.74h3.91l-1.96-11.74Z"/><path class="o" d="M175.77,39.99c-1.9,0-2.94,1.12-2.94,2.98,0,1.7,.89,3.01,1.96,3.87l4.89,3.91c2,1.62,3.91,4.07,3.91,7.57,0,4.07-2.74,6.41-6.85,6.41-5.12,0-7.54-3.32-7.83-8.1l3.91-.98c.14,2.83,.95,5.87,3.91,5.87,1.96,0,2.94-.98,2.94-2.94,0-2.46-1.51-3.75-2.94-4.89l-4.89-3.91c-1.68-1.32-2.95-3.49-2.95-6.39,0-4.07,2.75-6.61,6.87-6.61,4.85,0,7.48,2.68,7.83,7.13l-3.91,.98c-.17-2.6-1.15-4.89-3.91-4.89Z"/><path class="o" d="M198.14,40.54h-4.89v23.91h-3.91v-23.91h-4.89v-3.49h13.7v3.49Z"/><path class="o" d="M210.31,50.75l4.4,13.7h-3.88l-3.94-12.72h-2.94v12.72h-3.91v-27.4h4.89c5.58,0,8.81,1.9,8.81,7.34,0,3.23-1.15,5.54-3.43,6.36Zm-5.38-10.76h-.98v8.81h.98c3.16,0,4.89-1.21,4.89-4.4s-1.73-4.4-4.89-4.4Z"/><path class="o" d="M230.78,45.71v9.94c0,5.5-1.99,9.08-7.55,9.08s-7.55-3.5-7.55-9.08v-9.94c0-5.58,1.94-8.93,7.55-8.93s7.55,3.43,7.55,8.93Zm-11.19-.98v11.9c0,2.94,.7,4.89,3.64,4.89s3.64-1.96,3.64-4.89v-11.9c0-2.94-.7-4.74-3.64-4.74s-3.64,1.8-3.64,4.74Z"/><path class="o" d="M238.12,46.23v18.23h-3.91v-27.4h2.94l6.85,16.94v-16.94h3.91v27.4h-2.78l-7-18.23Z"/><path class="o" d="M266.44,45.71v9.94c0,5.5-1.99,9.08-7.55,9.08s-7.55-3.5-7.55-9.08v-9.94c0-5.58,1.94-8.93,7.55-8.93s7.55,3.43,7.55,8.93Zm-11.19-.98v11.9c0,2.94,.7,4.89,3.64,4.89s3.64-1.96,3.64-4.89v-11.9c0-2.94-.7-4.74-3.64-4.74s-3.64,1.8-3.64,4.74Z"/><path class="o" d="M273.78,42.83v21.62h-3.91v-27.4h5.41l3.88,20.98,3.88-20.98h5.41v27.4h-3.91v-21.62l-3.91,21.62h-2.94l-3.91-21.62Z"/><path class="o" d="M296.24,55.64l-5.87-18.59h3.91l3.91,13.7,3.91-13.7h3.91l-5.87,18.59v8.81h-3.91v-8.81Z"/></g><g><path class="h" d="M204.11,68.33c-.34,.25-.71,.43-1.1,.55-.39,.12-.78,.26-1.17,.4-.49,.1-.97,.23-1.43,.4-.46,.17-.94,.36-1.43,.55-.05,.15-.1,.28-.15,.4-.05,.12-.12,.26-.22,.4-.64,1.22-1.39,2.46-2.27,3.7-.88,1.25-2.01,2.14-3.37,2.68-.83,.34-1.63,.27-2.38-.22-.76-.49-1.11-1.22-1.06-2.2,.1-1.17,.61-2.21,1.54-3.12,.93-.9,1.86-1.65,2.79-2.24,1.12-.68,2.39-1.27,3.81-1.76,.1-.29,.2-.6,.29-.92,.1-.32,.2-.65,.29-.99,.15-.44,.26-1,.33-1.69,.07-.68-.09-1.2-.48-1.54-.93-.83-2.01-1.21-3.23-1.14-1.22,.07-2.37,.26-3.45,.55-1.61,.39-3.14,.94-4.58,1.65-1.44,.71-2.87,1.48-4.29,2.31-2.89,1.71-5.61,3.66-8.18,5.83-2.57,2.18-4.98,4.51-7.22,7-2.15,2.49-4.16,5.18-6.01,8.07-1.86,2.88-3.3,5.92-4.33,9.09-.54,1.42-.89,2.9-1.06,4.44-.17,1.54-.06,3.07,.33,4.58,.15,.49,.3,.97,.48,1.43,.17,.47,.45,.89,.84,1.28,.54,.54,1.16,.91,1.87,1.1,.71,.2,1.4,.32,2.09,.37,1.56,.1,3.14-.08,4.73-.55,1.59-.46,3.07-1.06,4.44-1.8,.63-.34,1.23-.71,1.8-1.1,.56-.39,1.09-.85,1.58-1.39,.2-.19,.39-.4,.59-.62,.2-.22,.37-.45,.51-.7,.15-.19,.27-.41,.37-.66,.1-.24,.24-.46,.44-.66,.34-.39,.65-.44,.92-.15,.27,.29,.4,.61,.4,.95-.05,.59-.23,1.16-.55,1.72-.32,.56-.65,1.04-.99,1.43-.98,1.12-2.05,2.13-3.23,3.01-1.17,.88-2.45,1.64-3.81,2.27-1.32,.59-2.76,1.04-4.33,1.36-1.57,.32-3.08,.39-4.55,.22-1.47-.17-2.81-.65-4.03-1.43-1.22-.78-2.15-1.98-2.79-3.59-.59-1.52-.91-3.08-.95-4.69-.05-1.61,.08-3.21,.4-4.8,.32-1.59,.78-3.14,1.39-4.66,.61-1.52,1.28-2.96,2.02-4.33,1.56-2.93,3.37-5.7,5.43-8.29,2.05-2.59,4.28-5.06,6.67-7.41,2.39-2.25,4.96-4.35,7.7-6.31,2.74-1.95,5.6-3.64,8.58-5.06,1.42-.68,2.91-1.29,4.47-1.83,1.56-.54,3.15-.9,4.77-1.1,.59-.05,1.25-.05,1.98,0,.73,.05,1.44,.18,2.13,.4,.68,.22,1.29,.55,1.83,.99,.54,.44,.93,1,1.17,1.69,.2,.69,.24,1.36,.15,2.02s-.22,1.33-.37,2.02l-.22,.95c.2,0,.44-.05,.73-.15,.54-.1,1.04-.18,1.5-.26,.46-.07,.94-.06,1.43,.04,.34,.1,.57,.31,.7,.62,.12,.32,.04,.6-.26,.84Z"/><path class="h" d="M192.03,81.38c-1.71,.39-3.37,.97-4.99,1.72-1.61,.76-3.06,1.75-4.33,2.97-1.37,1.32-2.52,2.71-3.45,4.18-.1,.2-.26,.48-.48,.84-.22,.37-.4,.75-.55,1.14-.15,.39-.24,.77-.29,1.14-.05,.37,.05,.65,.29,.84v-.07c.29,.15,.64,.16,1.03,.04,.39-.12,.79-.31,1.21-.55,.41-.24,.81-.5,1.17-.77s.65-.48,.84-.62c.54-.39,1.06-.78,1.58-1.17,.51-.39,1.04-.81,1.58-1.25l.44-.81c.83-1.37,1.76-2.58,2.79-3.63s2.13-2.09,3.3-3.12c0-.24,.12-.39,.37-.44,.24-.05,.41,.05,.51,.29,.05,.2,.1,.37,.15,.51,.05,.15,.1,.34,.15,.59,.2,.44,.21,.81,.04,1.1-.17,.29-.38,.64-.62,1.03-.73,.88-1.49,1.75-2.27,2.6-.78,.86-1.61,1.7-2.49,2.53-.1,.15-.22,.38-.37,.7-.15,.32-.29,.66-.44,1.03-.15,.37-.27,.73-.37,1.1-.1,.37-.12,.7-.07,.99,.59-.1,1.17-.37,1.76-.81,.59-.44,1.12-.86,1.61-1.25,.68-.54,1.34-1.09,1.98-1.65,.63-.56,1.27-1.11,1.91-1.65,.64-.54,1.25-1.07,1.83-1.61,.59-.54,1.2-1.05,1.83-1.54,.19-.15,.46-.38,.81-.7,.34-.32,.64-.43,.88-.33,.15,.1,.21,.22,.18,.37-.03,.15-.09,.32-.18,.51-.1,.2-.22,.38-.37,.55-.15,.17-.25,.31-.29,.4-.93,1.27-1.96,2.51-3.08,3.7-1.13,1.2-2.27,2.31-3.45,3.34-.54,.49-1.09,.94-1.65,1.36-.56,.42-1.14,.8-1.72,1.14-.54,.34-1.04,.55-1.5,.62-.46,.07-1.02,.01-1.65-.18-.69-.2-1.1-.56-1.25-1.1-.15-.54-.17-1.15-.07-1.83-.29,.25-.59,.47-.88,.66-.29,.2-.59,.39-.88,.59-.69,.49-1.43,.92-2.24,1.28-.81,.37-1.63,.5-2.46,.4-.93-.15-1.55-.54-1.87-1.17-.32-.63-.45-1.36-.4-2.16,.05-.81,.22-1.61,.51-2.42,.29-.81,.56-1.48,.81-2.02,.83-1.61,1.88-3.07,3.15-4.36,1.27-1.3,2.69-2.38,4.25-3.26,1.56-.93,3.23-1.39,4.99-1.39,.73,0,1.52,.12,2.35,.37,.1,.05,.22,.14,.37,.26,.15,.12,.26,.25,.33,.37,.07,.12,.1,.25,.07,.37-.03,.12-.16,.21-.4,.26Z"/><path class="h" d="M189.91,91.43c0-.15,.1-.27,.29-.37,.2-.1,.42-.18,.66-.26,.25-.07,.49-.12,.73-.15,.25-.02,.42-.04,.51-.04h2.2c3.18-4.79,6.59-9.4,10.23-13.82,3.64-4.42,7.61-8.54,11.92-12.36,.54-.49,1.09-.94,1.65-1.36,.56-.41,1.21-.67,1.94-.77h.62c.32,0,.62,.04,.92,.11,.29,.07,.51,.18,.66,.33,.15,.15,.12,.37-.07,.66-.69,.88-1.46,1.69-2.31,2.42-.86,.73-1.7,1.52-2.53,2.35-1.08,.98-2.11,1.98-3.12,3.01-1,1.03-1.99,2.08-2.97,3.15-2.1,2.3-4.16,4.66-6.16,7.08-2.01,2.42-3.94,4.9-5.79,7.44l-.88,1.17c.78-.15,1.55-.3,2.31-.48,.76-.17,1.53-.38,2.31-.62,1.12-.39,2.19-.82,3.19-1.28,1-.46,1.99-.96,2.97-1.5l2.57-1.39c.24-.1,.41-.06,.51,.11,.1,.17,.1,.36,0,.55-1.27,1.96-2.98,3.53-5.13,4.73-2.15,1.2-4.33,2.09-6.53,2.68-1.57,.44-3.13,.73-4.69,.88-1.32,1.91-2.57,3.84-3.74,5.79-1.17,1.96-2.32,3.96-3.45,6.01-.78,1.47-1.53,2.95-2.24,4.44-.71,1.49-1.38,2.99-2.02,4.51-.29,.78-.56,1.54-.81,2.27-.24,.73-.49,1.49-.73,2.27-.1,.34-.17,.67-.22,.99-.05,.32-.1,.67-.15,1.06,0,.19,.02,.45,.07,.77,.05,.32,.12,.48,.22,.48,.44,0,.92-.16,1.43-.48,.51-.32,.97-.62,1.36-.92,.69-.54,1.31-1.11,1.87-1.72,.56-.61,1.11-1.26,1.65-1.94,.98-1.27,1.87-2.62,2.68-4.03,.81-1.42,1.5-2.89,2.09-4.4,.49-1.37,.88-2.79,1.17-4.25,.29-1.47,.39-2.96,.29-4.47,0-.44-.01-.87-.04-1.28-.02-.41-.04-.84-.04-1.28-.05-.68,.18-1,.7-.95,.51,.05,.89,.32,1.14,.81,.98,2.89,1.15,5.77,.51,8.65-.63,2.88-1.61,5.65-2.93,8.29-.68,1.37-1.48,2.68-2.38,3.92-.9,1.25-1.89,2.41-2.97,3.48-.44,.44-.93,.9-1.47,1.39-.54,.49-1.11,.93-1.72,1.32-.61,.39-1.25,.68-1.91,.88-.66,.2-1.31,.24-1.94,.15-1.17-.2-1.98-.72-2.42-1.58-.44-.86-.6-1.96-.48-3.3,.12-1.35,.46-2.85,1.03-4.51,.56-1.66,1.25-3.37,2.05-5.13,.81-1.76,1.67-3.51,2.6-5.24,.93-1.73,1.83-3.34,2.71-4.8,.88-1.47,1.65-2.75,2.31-3.85,.66-1.1,1.14-1.87,1.43-2.31l.59-.88c-.29-.05-.59-.1-.88-.15-.29-.05-.56-.17-.81-.37-.29-.19-.56-.46-.81-.81-.24-.34-.17-.71,.22-1.1Z"/><path class="h" d="M211.76,88.79l-.15,.29c-.39,.64-.8,1.33-1.21,2.09-.42,.76-.62,1.55-.62,2.38,0,.39,.1,.64,.29,.73,.2,.1,.43,.14,.7,.11,.27-.02,.55-.08,.84-.18s.56-.2,.81-.29c.83-.29,1.63-.64,2.38-1.03s1.5-.81,2.24-1.25c1.27-.83,2.49-1.67,3.67-2.53,1.17-.86,2.3-1.77,3.37-2.75,.24-.2,.56-.53,.95-.99s.73-.7,1.03-.7,.41,.11,.37,.33c-.05,.22-.15,.48-.29,.77-.15,.29-.32,.56-.51,.81-.2,.25-.29,.39-.29,.44-1.76,2.35-3.91,4.38-6.45,6.09-1.17,.83-2.47,1.63-3.89,2.38-1.42,.76-2.84,1.19-4.25,1.28-1.27,.1-2.2-.3-2.79-1.21-.59-.9-.81-1.94-.66-3.12,.2-1.81,.76-3.54,1.69-5.21,.93-1.66,2.03-3.13,3.3-4.4,.44-.44,1.07-.93,1.91-1.47,.83-.54,1.69-.96,2.57-1.28,.88-.32,1.73-.46,2.57-.44,.83,.02,1.52,.38,2.05,1.06,.49,.69,.65,1.36,.48,2.02-.17,.66-.5,1.28-.99,1.87-.49,.59-1.06,1.1-1.72,1.54-.66,.44-1.24,.78-1.72,1.03-1.57,.73-3.18,1.22-4.84,1.47l-.81,.15Zm1.91-2.64c.39-.15,.77-.29,1.14-.44,.37-.15,.74-.34,1.14-.59,.15-.05,.45-.21,.92-.48s.95-.57,1.47-.92c.51-.34,.95-.67,1.32-.99,.37-.32,.48-.55,.33-.7-.2-.39-.58-.45-1.14-.18-.56,.27-1.16,.64-1.8,1.1-.64,.46-1.21,.95-1.72,1.47-.51,.51-.84,.84-.99,.99l-.66,.73Zm15.03-18.19c.1,.78,0,1.5-.29,2.16s-.68,1.27-1.17,1.83c-.49,.56-1.05,1.06-1.69,1.5-.64,.44-1.27,.81-1.91,1.1-.68,.39-1.41,.71-2.16,.95-.76,.25-1.55,.42-2.38,.51-.15,0-.34,.01-.59,.04-.25,.03-.47,.01-.66-.04-.25-.15-.38-.35-.4-.62-.03-.27,.08-.48,.33-.62,1.17-.68,2.3-1.45,3.37-2.31,1.07-.86,2.1-1.77,3.08-2.75l3.08-2.93c.24-.24,.45-.35,.62-.33,.17,.03,.3,.11,.4,.26,.1,.15,.18,.34,.26,.59,.07,.25,.11,.46,.11,.66Z"/></g></g><g><path class="p" d="M82,27.95c-23.2-11.89-46.91-11.97-52.96-.17l-.6,1.1c-11.11-7.84-18.46-5.17-24.24,5.36-5.78,10.52,3.8,17.38,3.8,17.38l9.79,6.96c-7.99,19.12,4.2,33.8,4.2,33.8,0,0,4.33,10.52,18.92,18,14.58,7.48,24.89,3.81,24.89,3.81,14.69,1.95,24.73-11.05,24.73-11.05,14.58-18.07,22.52-32.29,22.52-32.29,6.05-11.8-7.85-31-31.05-42.9ZM13.42,31.18c8.56,1.02,11.17,7.8,11.17,7.8l-3.19,8.74c-16.39-2.44-7.99-16.55-7.99-16.55Z"/><path class="f" d="M82,27.95c-23.2-11.89-46.91-11.97-52.96-.17l-.6,1.1c-11.11-7.84-18.46-5.17-24.24,5.36-5.78,10.52,3.8,17.38,3.8,17.38l9.79,6.96c-7.99,19.12,4.2,33.8,4.2,33.8,0,0,4.33,10.52,18.92,18,14.58,7.48,24.89,3.81,24.89,3.81,14.69,1.95,24.73-11.05,24.73-11.05,14.58-18.07,22.52-32.29,22.52-32.29,6.05-11.8-7.85-31-31.05-42.9ZM13.42,31.18c8.56,1.02,11.17,7.8,11.17,7.8l-3.19,8.74c-16.39-2.44-7.99-16.55-7.99-16.55Z"/><path class="o" d="M21.08,48.75s-8.37-.94-10.46-6.73c0,0-.49,4.71,10,8.05l.45-1.31Z"/><path class="o" d="M42.01,106.24c-8.82-4.52-15.51-10.51-18.25-15.76,1.53,5.29,8.31,11.94,17.73,16.78,9.42,4.83,18.78,6.45,23.97,4.61-5.86,.83-14.63-1.1-23.45-5.62Z"/><ellipse class="l" cx="71.22" cy="49.12" rx="22" ry="44.96" transform="translate(-5.21 89.65) rotate(-62.53)"/><path class="o" d="M109.43,55.87c1.7,7.93-4.88,10.56-4.88,10.56h0c-.47-8.6-11.41-20.38-27.42-28.58-19.02-9.75-37.97-10.75-42.33-2.25-.85,1.65-1.08,3.55-.76,5.6h0c-3.94-5.78-1.8-11.97-1.8-11.97-4.39,7.04,1.81,16.55,1.81,16.55l1.57,2.2c4.98,7.28,13.89,14.75,25.63,20.77,10.9,5.59,21.55,8.78,30.15,8.86h.18c31.25-.09,17.85-21.73,17.85-21.73Zm-47.3,10.67c-17.44-8.94-28.57-22.05-24.87-29.28,3.71-7.23,20.85-5.85,38.29,3.1,17.44,8.94,28.57,22.05,24.87,29.28-3.71,7.23-20.85,5.85-38.29-3.1Z"/><path class="o" d="M28.05,29.75s-6.5-5.68-12.29-4.26c0,0,6.34-.35,11.99,5.42l.3-1.16Z"/><path class="o" d="M100.79,66.42s-.39-7.85-1.31-11.19,5.25-10,10.21-11.95c5.38-2.11,18.18-2.99,15.27-11.2-3.29-9.26-27.01,5.45-27.01,5.45,0,0-10.79,2.04-31.22-3.89-20.43-5.92-28.62,1.97-28.62,1.97l62.69,30.8Z"/><circle class="o" cx="126.09" cy="46.23" r="4.16"/><circle class="o" cx="135.6" cy="32.53" r="3.32"/><circle class="o" cx="113.46" cy="23.55" r="3.32"/><circle class="o" cx="102.46" cy="26.4" r="5.26"/><circle class="o" cx="118.11" cy="44.92" r="2.22"/><path class="o" d="M61.6,66.87c-17.69-9.07-28.99-22.37-25.22-29.71,3.76-7.34,20.78-5.16,38.84,3.14,19.54,8.98,28.99,22.37,25.22,29.71-3.76,7.34-21.15,5.93-38.84-3.14Z"/><g><circle class="i" cx="117.23" cy="11.81" r="6.45"/><circle class="h" cx="119.16" cy="13.52" r="2.04"/><circle class="h" cx="117.47" cy="16.46" r=".77"/><circle class="h" cx="114.72" cy="14.96" r="1.41"/><circle class="h" cx="114.64" cy="9.9" r="2.31"/><circle class="h" cx="113.91" cy="12.56" r=".73"/><circle class="h" cx="117.43" cy="7.16" r=".73"/><circle class="h" cx="119.4" cy="9.34" r="1.2"/><circle class="h" cx="121.8" cy="10.93" r=".81"/></g><g><g id="b"><g><path class="m" d="M72.31,51.29c.72,.75,1.32,1.5,1.32,2.24,0,.67-.48,.94-1.16,1.04-1.44,.2-4.03-.81-5.58-2.17,.76,.53,1.55,.96,2.35,1.27,.87,.33,1.67,.5,2.36,.37,1-.18,1.07-1.04,.15-2.11-.78-.91-1.77-1.62-2.83-2.23-1.8-1.03-3.5-1.58-5.03-1.43-1.52,.15-1.72,1.33-.48,2.88,.32,.41,.69,.8,1.1,1.16,1.16,1.01,2.44,1.83,3.76,2.54,2.06,1.1,4.07,1.82,5.97,1.94,1.13,.07,2.06-.11,2.63-.71,.79-.85,.48-2.08-.6-3.54-.85-1.15-1.94-2.19-3.17-3.12-5.03-3.78-10.06-5.92-15.02-6.24-1.58-.1-2.87,.23-3.74,.99-1.37,1.2-1.11,3.06,.32,5.36,1.08,1.74,2.62,3.31,4.35,4.8,2.94,2.52,6.14,4.56,9.48,6.34,2.89,1.54,5.8,2.81,8.7,3.78,3.52,1.18,6.9,1.95,9.95,1.88,2.96-.07,5.36-.82,6.76-2.63,1.38-1.79,1.16-4.24-.37-7.19-1.21-2.33-3.01-4.56-5.07-6.73-.5-.53-1.03-1.05-1.53-1.58,.45,.29,.82,.65,1.21,.99,2.12,1.87,4.07,3.82,5.72,5.91,1.82,2.33,3.13,4.64,3.54,6.88,.42,2.36-.22,4.1-1.75,5.32-1.73,1.38-4.19,1.87-7.07,1.83-4.29-.07-8.94-1.28-13.78-3.16-4.32-1.67-8.56-3.84-12.71-6.51-2.37-1.52-4.68-3.16-6.82-4.98-2.45-2.09-4.59-4.33-6.09-6.79-1.12-1.82-1.64-3.5-1.31-4.95,.31-1.34,1.25-2.18,2.61-2.68,1.95-.72,4.36-.68,7.04-.2,4.05,.73,8.18,2.4,12.34,4.74,1.91,1.07,3.77,2.26,5.54,3.63,1.93,1.49,3.73,3.08,5.11,4.9,1.12,1.48,1.81,2.89,1.62,4.15-.16,1.02-.88,1.6-1.86,1.98-1.5,.58-3.4,.43-5.5-.07-.55-.13-1.1-.28-1.66-.41h0c-.05-.04-.11-.07-.16-.07-.09-.02-.17-.04-.26-.07-2.98-1.09-5.88-2.55-8.63-4.62-1.38-1.04-2.65-2.17-3.61-3.47-.84-1.13-1.21-2.16-.77-2.96,.23-.41,.68-.63,1.15-.82l.04-.03h0c.17,.02,.27-.05,.4-.08,.32-.02,.61-.1,.96-.09,1.32,.05,2.72,.38,4.19,.98,2.13,.86,4.14,2.02,5.9,3.72Zm-7.68-3.67c-.07-.07-.08-.08-.09-.08-1.61-.43-2.95-.43-3.85,.24-.36,.27-.55,.65-.4,1.24,.19,.74,.7,1.46,1.34,2.18,1.64,1.81,3.64,3.22,5.77,4.45,2.7,1.55,5.39,2.65,8.02,3.12,1.43,.25,2.78,.36,3.88,.02,.93-.29,1.71-.71,1.98-1.57,.37-1.21-.35-2.63-1.51-4.12-1.13-1.45-2.54-2.76-4.08-3.97-2.25-1.79-4.65-3.31-7.14-4.63-1.89-1-3.78-1.86-5.69-2.55-3.16-1.14-6.14-1.79-8.87-1.74-1.86,.04-3.42,.42-4.48,1.4-1.18,1.09-1.33,2.66-.43,4.73,.81,1.85,2.23,3.61,3.87,5.32,1.28,1.34,2.67,2.58,4.18,3.75,1.54,1.2,3.13,2.33,4.75,3.39,1.75,1.15,3.55,2.19,5.37,3.16,1.62,.87,3.25,1.67,4.88,2.38,2.98,1.3,5.92,2.36,8.83,3.09,2.15,.54,4.22,.91,6.19,1.02,2.84,.16,5.33-.16,7.21-1.28,1.33-.79,2.16-1.93,2.35-3.54,.22-1.93-.58-4.08-2.02-6.37-.03-.05-.07-.12-.15-.12,0,.02,0,.03,0,.05,.04,.1,.09,.21,.14,.31,.51,1.2,.85,2.35,.89,3.41,.06,1.69-.48,3.02-1.57,4-1.46,1.32-3.54,1.93-6,2.09-1.96,.13-4.15-.2-6.41-.71-2.8-.64-5.65-1.61-8.54-2.86-2.67-1.15-5.31-2.51-7.91-4.09-2.33-1.41-4.56-2.97-6.61-4.77-2.11-1.84-3.92-3.79-5.03-5.95-.92-1.78-1.06-3.27-.32-4.42,.67-1.04,1.91-1.48,3.4-1.64,1.7-.17,3.63,.13,5.67,.73,3.94,1.15,7.76,3.06,11.39,5.92,1.43,1.13,2.7,2.36,3.6,3.75,1.25,1.93,1.1,3.41-.29,4.12-1.09,.56-2.58,.48-4.25,.08-1.63-.39-3.28-1.08-4.93-2.01-1.41-.8-2.79-1.67-3.98-2.83-.71-.69-1.34-1.42-1.67-2.18-.56-1.3-.21-2.15,.95-2.43,.46-.11,.98-.13,1.57-.1Z"/><path class="d" d="M79.87,48.64c1.44,1.18,2.85,2.4,4.09,3.73,1.3,1.38,2.37,2.83,3.03,4.28,.95,2.09,.98,3.8-.31,4.89-1.27,1.07-3.1,1.43-5.35,1.28-2.71-.18-5.58-.94-8.56-2.13-2.6-1.03-5.16-2.33-7.67-3.92-1.1-.69-2.19-1.41-3.22-2.22-1.71-1.34-3.33-2.75-4.58-4.38-.84-1.1-1.4-2.16-1.36-3.14,.04-.89,.58-1.41,1.31-1.81,1.1-.59,2.61-.55,4.26-.27,2.26,.38,4.58,1.27,6.93,2.51,1.09,.57,2.14,1.22,3.19,1.93,1.06,.73,2.03,1.51,2.92,2.38,.78,.76,1.44,1.56,1.71,2.4,.19,.61,.06,1.04-.32,1.33-.57,.44-1.36,.62-2.37,.48-.31-.04-.6-.02-.98-.23,.2-.02,.4-.02,.59-.05,.83-.12,1.41-.47,1.58-1.18,.18-.76-.28-1.64-1.06-2.54-.86-.99-1.89-1.85-3.06-2.59-1.57-.99-3.15-1.83-4.78-2.39-1.72-.59-3.29-.85-4.68-.67-.08,.01-.16,.03-.2,.08l.26,.26c.32-.02,.61-.1,.96-.09,1.32,.05,2.72,.38,4.19,.98,2.13,.86,4.14,2.02,5.9,3.72,.45,.4,.86,.82,1.18,1.27,.7,.97,.74,1.73,.12,2.18-.49,.35-1.18,.43-2.02,.28-1.36-.25-2.74-.87-4.11-1.72-.83-.52-1.61-1.1-2.25-1.81-.63-.71-.78-1.3-.43-1.67,.2-.21,.48-.34,.87-.34,1.1-.01,2.29,.44,3.51,1.13,.25,.14,.5,.3,.75,.45-.19-.15-.39-.3-.59-.43-1.06-.69-2.13-1.19-3.22-1.46-.83-.21-1.55-.22-2.13,0-.7,.27-.78,.9-.23,1.78,.36,.58,.85,1.11,1.43,1.61,2.31,1.99,4.77,3.26,7.35,3.88,1.41,.34,2.66,.41,3.61-.06,1.28-.63,1.28-1.89-.03-3.6-.83-1.08-1.87-2.04-3.03-2.91-3.64-2.75-7.4-4.58-11.25-5.42-2.25-.49-4.21-.51-5.58,.4-1.42,.95-1.46,2.62-.04,4.77,.8,1.22,1.86,2.34,3.04,3.41,2.07,1.88,4.35,3.49,6.75,4.9,4.75,2.8,9.45,4.7,14.05,5.37,2.56,.37,4.82,.3,6.49-.65,1.45-.82,2.15-2.08,1.75-4.05-.32-1.57-1.24-3.17-2.47-4.79-1.3-1.71-2.91-3.25-4.68-4.71,0,0-1.25-1.06-1.93-1.56-5.2-3.89-10.64-6.94-16.29-9.2-4.29-1.71-8.46-2.92-12.4-3.27-2.79-.25-5.28-.05-7.22,.92-2.08,1.03-3.18,2.73-2.89,5.35,.26,2.29,1.55,4.69,3.46,7.13,2.56,3.26,5.79,6.1,9.3,8.76-.08-.12-.18-.21-.29-.3-2.13-1.86-4.1-3.8-5.79-5.88-1.44-1.77-2.61-3.55-3.27-5.34-1.21-3.3-.43-5.5,1.91-6.8,1.93-1.08,4.49-1.28,7.39-.98,3.68,.38,7.55,1.56,11.54,3.39,4.64,2.12,9.02,4.85,13.09,8.25,1.75,1.46,3.21,3.07,4.17,4.81,1.11,2.01,1.13,3.56-.06,4.57-.74,.63-1.78,.91-3.02,.95-1.77,.05-3.71-.34-5.77-1.09h0c-.05,0-.11-.01-.16-.07-.09-.02-.17-.04-.26-.07-2.98-1.09-5.88-2.55-8.63-4.62-1.38-1.04-2.65-2.17-3.61-3.47-.84-1.13-1.21-2.16-.77-2.96,.23-.41,.68-.63,1.15-.82l.04-.03h0l.14-.33c-.51,.07-.86,.3-1.15,.57-.5,.46-.75,1.06-.58,1.92,.2,.97,.86,1.93,1.7,2.88,1.32,1.48,2.93,2.7,4.63,3.82,2.41,1.59,4.88,2.82,7.39,3.72,2.58,.92,4.99,1.4,7.09,1.14,1.74-.22,2.97-.93,3.37-2.38,.27-.98,0-2.14-.67-3.41-1.13-2.15-2.94-4.07-5.12-5.87-.84-.69-1.69-1.37-2.58-1.99-2.31-1.63-4.66-3.13-7.11-4.45-2.56-1.38-5.13-2.51-7.7-3.4-1.93-.67-3.82-1.16-5.65-1.46-1.46-.24-2.88-.39-4.21-.37-1.66,.03-3.17,.27-4.47,.79-1.21,.49-2.15,1.22-2.76,2.22-.6,.98-.79,2.17-.56,3.57,.23,1.41,.85,2.87,1.77,4.39,.01,.02,.02,.05,.04,.13-.36-.42-.62-.8-.87-1.18-1.09-1.6-1.91-3.18-2.23-4.71-.31-1.47-.17-2.72,.39-3.78,.74-1.4,2.14-2.18,3.9-2.62,1.58-.39,3.39-.42,5.34-.24,2.13,.2,4.35,.67,6.63,1.32,3.77,1.08,7.56,2.63,11.37,4.59,2.08,1.07,4.12,2.26,6.12,3.58,1.31,.87,2.61,1.75,3.88,2.69"/><path class="k" d="M64.63,47.61c-.59-.03-1.11-.01-1.57,.1-1.15,.28-1.51,1.12-.95,2.43,.33,.76,.95,1.48,1.67,2.18,1.19,1.15,2.57,2.02,3.98,2.83,1.64,.94,3.29,1.62,4.93,2.01,1.67,.4,3.16,.47,4.25-.08,1.39-.71,1.53-2.19,.29-4.12-.9-1.39-2.17-2.62-3.6-3.75-3.63-2.85-7.45-4.77-11.39-5.92-2.03-.59-3.97-.9-5.67-.73-1.5,.15-2.74,.6-3.4,1.64-.74,1.15-.6,2.63,.32,4.42,1.11,2.16,2.91,4.1,5.03,5.95,2.06,1.8,4.28,3.36,6.61,4.77,2.6,1.58,5.24,2.94,7.91,4.09,2.89,1.24,5.74,2.22,8.54,2.86,2.26,.51,4.45,.84,6.41,.71,2.46-.16,4.54-.78,6-2.09,1.09-.99,1.64-2.31,1.57-4-.04-1.07-.37-2.22-.89-3.41-.04-.1-.09-.21-.14-.31,0-.02,0-.03,0-.05,.09,0,.12,.07,.15,.12,1.45,2.29,2.24,4.44,2.02,6.37-.18,1.61-1.02,2.75-2.35,3.54-1.89,1.12-4.37,1.44-7.21,1.28-1.98-.11-4.05-.48-6.19-1.02-2.91-.73-5.86-1.79-8.83-3.09-1.63-.71-3.26-1.51-4.88-2.38-1.82-.98-3.61-2.01-5.37-3.16-1.62-1.06-3.21-2.19-4.75-3.39-1.51-1.17-2.91-2.41-4.18-3.75-1.64-1.72-3.06-3.47-3.87-5.32-.9-2.07-.74-3.64,.43-4.73,1.06-.98,2.62-1.36,4.48-1.4,2.73-.05,5.71,.6,8.87,1.74,1.91,.69,3.8,1.55,5.69,2.55,2.49,1.32,4.88,2.84,7.14,4.63,1.53,1.22,2.95,2.52,4.08,3.97,1.16,1.49,1.88,2.91,1.51,4.12-.27,.87-1.05,1.28-1.98,1.57-1.1,.35-2.45,.24-3.88-.02-2.64-.46-5.33-1.56-8.02-3.12-2.12-1.22-4.13-2.63-5.77-4.45-.64-.71-1.15-1.44-1.34-2.18-.15-.59,.04-.97,.4-1.24,.89-.68,2.24-.67,3.85-.24,0,0,.02,.02,.09,.08Z"/><path class="e" d="M73.11,58.79c-.05,0-.11-.02-.16-.07,.05,0,.11,.02,.16,.07Z"/><path class="c" d="M60.82,46.78l.04-.03-.04,.03Z"/><path class="n" d="M79.87,48.64c1.44,1.18,2.85,2.4,4.09,3.73,1.3,1.38,2.37,2.83,3.03,4.28,.95,2.09,.98,3.8-.31,4.89-1.27,1.07-3.1,1.43-5.35,1.28-2.71-.18-5.58-.94-8.56-2.13-2.6-1.03-5.16-2.33-7.67-3.92-1.1-.69-2.19-1.41-3.22-2.22-1.71-1.34-3.33-2.75-4.58-4.38-.84-1.1-1.4-2.16-1.36-3.14,.04-.89,.58-1.41,1.31-1.81,1.1-.59,2.61-.55,4.26-.27,2.26,.38,4.58,1.27,6.93,2.51,1.09,.57,2.14,1.22,3.19,1.93,1.06,.73,2.03,1.51,2.92,2.38,.78,.76,1.44,1.56,1.71,2.4,.19,.61,.06,1.04-.32,1.33-.57,.44-1.36,.62-2.37,.48-.31-.04-.6-.02-.98-.23,.2-.02,.4-.02,.59-.05,.83-.12,1.41-.47,1.58-1.18,.18-.76-.28-1.64-1.06-2.54-.86-.99-1.89-1.85-3.06-2.59-1.57-.99-3.15-1.83-4.78-2.39-1.72-.59-3.29-.85-4.68-.67-.08,.01-.16,.03-.2,.08h0c-.51,.07-.86,.3-1.15,.57-.5,.46-.75,1.06-.58,1.92,.2,.97,.86,1.93,1.7,2.88,1.32,1.48,2.93,2.7,4.63,3.82,2.41,1.59,4.88,2.82,7.39,3.72,2.58,.92,4.99,1.4,7.09,1.14,1.74-.22,2.97-.93,3.37-2.38,.27-.98,0-2.14-.67-3.41-1.13-2.15-2.94-4.07-5.12-5.87-.84-.69-1.69-1.37-2.58-1.99-2.31-1.63-4.66-3.13-7.11-4.45-2.56-1.38-5.13-2.51-7.7-3.4-1.93-.67-3.82-1.16-5.65-1.46-1.46-.24-2.88-.39-4.21-.37-1.66,.03-3.17,.27-4.47,.79-1.21,.49-2.15,1.22-2.76,2.22-.6,.98-.79,2.17-.56,3.57,.23,1.41,.85,2.87,1.77,4.39,.01,.02,.02,.05,.04,.13-.36-.42-.62-.8-.87-1.18-1.09-1.6-1.91-3.18-2.23-4.71-.31-1.47-.17-2.72,.39-3.78,.74-1.4,2.14-2.18,3.9-2.62,1.58-.39,3.39-.42,5.34-.24,2.13,.2,4.35,.67,6.63,1.32,3.77,1.08,7.56,2.63,11.37,4.59,2.08,1.07,4.12,2.26,6.12,3.58,1.31,.87,2.61,1.75,3.88,2.69l.93,.74Z"/></g></g><polygon class="m" points="60.9 46.69 60.9 46.76 60.96 46.79 61.3 46.72 61.27 46.67 60.9 46.69"/><path class="j" d="M61.25,46.67s-.32,.06-.47,.12-.1-.31-.1-.31c0,0,.34-.11,.45-.13l.11,.33Z"/></g><polygon class="g" points="134.81 43.12 135.61 44.74 137.4 45 136.11 46.26 136.41 48.04 134.81 47.2 133.22 48.04 133.52 46.26 132.23 45 134.01 44.74 134.81 43.12"/><polygon class="g" points="121.67 18.72 122.24 19.87 123.5 20.05 122.59 20.94 122.8 22.2 121.67 21.61 120.54 22.2 120.76 20.94 119.84 20.05 121.11 19.87 121.67 18.72"/><polygon class="g" points="136.8 39.09 137.37 40.24 138.63 40.42 137.72 41.31 137.93 42.57 136.8 41.98 135.67 42.57 135.89 41.31 134.97 40.42 136.24 40.24 136.8 39.09"/><polygon class="g" points="147.26 29.94 147.82 31.09 149.09 31.27 148.17 32.16 148.39 33.42 147.26 32.83 146.13 33.42 146.34 32.16 145.43 31.27 146.69 31.09 147.26 29.94"/><polygon class="g" points="116.86 0 117.43 1.15 118.69 1.33 117.78 2.22 117.99 3.48 116.86 2.89 115.73 3.48 115.95 2.22 115.03 1.33 116.3 1.15 116.86 0"/><path class="o" d="M69.89,52.95l50.16-12.27c.44-.06,.89-.17,1.33-.33,3.47-1.24,5.27-5.08,3.97-8.55-1.14-3.06-4.46-4.86-7.65-4.15-.74,.17-1.42,.45-2.02,.82l-47.82,22.92"/><g><path class="d" d="M120.69,37.79c2.12-.76,3.22-3.09,2.46-5.21-.76-2.12-3.09-3.22-5.21-2.46l-34.88,14.75,17.4-6.43-29.94,12.97,34.64-9.6-9.15,3.45,24.68-7.46Z"/><path class="n" d="M117.51,31.07c-.22,.08-.43,.18-.62,.3l-28.39,13.61,30.58-7.48c.22-.03,.45-.08,.67-.16,1.73-.62,2.63-2.52,2.01-4.25s-2.52-2.63-4.25-2.01Z"/><path class="f" d="M117.5,32.46c-.13,.05-.26,.11-.38,.18l-17.28,8.29,18.62-4.55c.14-.02,.27-.05,.41-.1,1.05-.38,1.6-1.54,1.22-2.59s-1.54-1.6-2.59-1.22Z"/></g></g><g><path class="h" d="M237.79,88.7l-.55,2.57h-6.56l.55-2.57h6.56Z"/><path class="h" d="M244.35,88.7l-.55,2.57h-6.56l.55-2.57h6.56Z"/><path class="h" d="M263.59,76.35h-4.28l-4.47,20.91h-3.42l4.47-20.91h-4.28l.65-3.05h11.98l-.65,3.05Z"/><path class="h" d="M259.64,91.27l1.1-5.13c.81-3.8,2.62-6.23,6.46-6.23s4.61,2.43,3.8,6.23l-1.1,5.13c-.81,3.8-2.62,6.23-6.46,6.23s-4.61-2.43-3.8-6.23Zm4.52-5.13l-1.1,5.13c-.37,1.71-.73,3.42,.98,3.42s2.08-1.71,2.44-3.42l1.1-5.13c.37-1.71,.73-3.42-.98-3.42s-2.08,1.71-2.44,3.42Z"/><path class="h" d="M287.92,88.7l.18-.86h-3.42l.54-2.54h6.84l-2.56,11.95h-2.57l-.31-2.57c-.81,1.42-2.08,2.81-4.02,2.81-5.59,0-6-3.93-4.8-9.57l1.3-6.07c1.1-5.15,3.71-8.8,8.86-8.8,4.79,0,5.84,3.13,4.81,7.94h-3.42c.62-2.91,.87-5.13-1.99-5.13s-4.03,2.22-4.65,5.13l-1.65,7.7c-.67,3.16-.81,5.99,2.14,5.99s4.03-2.86,4.7-5.99Z"/><path class="h" d="M293.1,91.27l1.1-5.13c.81-3.8,2.62-6.23,6.46-6.23s4.61,2.43,3.8,6.23l-1.1,5.13c-.81,3.8-2.62,6.23-6.47,6.23s-4.61-2.43-3.8-6.23Zm4.52-5.13l-1.1,5.13c-.37,1.71-.73,3.42,.98,3.42s2.08-1.71,2.44-3.42l1.1-5.13c.37-1.71,.73-3.42-.98-3.42s-2.08,1.71-2.44,3.42Z"/><path class="h" d="M308.33,93.84l-.73,3.42h-3.42l.73-3.42h3.42Zm4.39-20.54l-4.64,18.82h-1.95l3.17-18.82h3.42Z"/></g></svg>